<svg width="1072" height="883" viewBox="0 0 1072 883" fill="none" xmlns="http://www.w3.org/2000/svg">
<path fill-rule="evenodd" clip-rule="evenodd" d="M556.004 37.575C641.226 41.6012 728.159 9.37567 806.721 42.6382C891.688 78.6132 960.454 146.862 1004.96 227.663C1051.48 312.105 1091.71 413.719 1061.58 505.291C1031.96 595.298 920.407 623.287 852.905 689.803C792.432 749.392 766.655 848.668 686.041 875.338C605.125 902.108 521.942 851.005 440.375 826.284C359.578 801.796 279.839 780.384 211.089 731.392C126.85 671.363 3.97683 615.87 0.0819359 512.527C-3.92153 406.303 139.869 358.91 193.593 267.176C239.473 188.835 212.878 66.801 289.581 18.2066C366.346 -30.4268 465.222 33.2861 556.004 37.575Z" fill="#297FE5"/>
</svg>
