<svg width="575" height="515" viewBox="0 0 575 515" fill="none" xmlns="http://www.w3.org/2000/svg">
<path fill-rule="evenodd" clip-rule="evenodd" d="M244.119 0.00836509C313.261 0.611296 366.579 43.3265 422.734 75.2372C479.237 107.346 552.176 132.705 570.898 185.704C589.483 238.314 540.268 288.409 516.118 339.586C493.259 388.03 484.573 443.606 433.819 476.198C381.904 509.537 310.845 517.753 244.119 514.257C180.445 510.922 116.253 493.477 71.8378 457.236C30.8609 423.8 28.7951 373.747 16.1774 328.263C4.96246 287.836 -4.83787 248.583 2.58978 207.613C11.395 159.045 20.6142 108.202 62.6193 72.0969C109.611 31.7057 174.725 -0.596765 244.119 0.00836509Z" fill="#63B3ED"/>
</svg>
