<svg xmlns="http://www.w3.org/2000/svg" xmlns:xlink="http://www.w3.org/1999/xlink" width="100%" height="100%" viewBox="0 0 800 800" fill-rule="evenodd" stroke-linecap="round" stroke-linejoin="round" stroke-miterlimit="1.5"><style><![CDATA[.B{fill:none}.C{stroke-width:5}.D{stroke-width:5.002}.E{stroke:#383838}]]></style><path d="M177.382 145.362H557.56v502.16H177.382z" fill="#fff" transform="matrix(.962633 .270809 -.270809 .962633 199.363 -76.5686)" class="C E"/><g transform="matrix(.986693 .162597 -.162597 .986693 125.976 -59.649)" class="B E"><g transform="matrix(.99544 .095386 -.095386 .99544 266.954 -1.68286)"><use xlink:href="#B" class="C"/><g class="D"><use xlink:href="#C"/><use xlink:href="#D"/></g></g><g transform="matrix(.99544 .095386 -.095386 .99544 253.22 108.191)"><use xlink:href="#B" class="C"/><g class="D"><use xlink:href="#C"/><use xlink:href="#D"/></g></g><g transform="matrix(.99544 .095386 -.095386 .99544 240.209 209.391)"><use xlink:href="#B" class="C"/><g class="D"><use xlink:href="#C"/><use xlink:href="#D"/></g></g></g><path d="M177.382 145.362H557.56v502.16H177.382z" fill="#fff" transform="matrix(.99324 .116075 -.116075 .99324 73.914 -39.9745)" class="C E"/><g transform="matrix(.99544 .095386 -.095386 .99544 266.954 -1.68286)" class="B E"><use xlink:href="#B" class="C"/><g class="D"><use xlink:href="#C"/><use xlink:href="#D"/></g></g><g transform="matrix(.99544 .095386 -.095386 .99544 253.22 108.191)" class="B E"><use xlink:href="#B" class="C"/><g class="D"><use xlink:href="#C"/><use xlink:href="#D"/></g></g><g transform="matrix(.99544 .095386 -.095386 .99544 240.209 209.391)" class="B E"><use xlink:href="#B" class="C"/><g class="D"><use xlink:href="#C"/><use xlink:href="#D"/></g></g><g class="E"><g class="C"><path d="M149.936 147.395h380.178v502.16H149.936z" fill="#fff"/><use xlink:href="#B" class="B"/></g><g class="D B"><use xlink:href="#C"/><use xlink:href="#D"/></g><use xlink:href="#B" x="171.316" y="-1.446" class="B C"/><g class="D B"><use xlink:href="#C" x="171.317" y="-1.446"/><use xlink:href="#D" x="171.317" y="-1.447"/></g><use xlink:href="#B" y="119.271" class="B C"/><g class="D B"><use xlink:href="#C" y="119.271"/><use xlink:href="#D" y="119.271"/></g><use xlink:href="#B" x="171.316" y="117.826" class="B C"/><g class="D B"><use xlink:href="#C" x="171.317" y="117.825"/><use xlink:href="#D" x="171.317" y="117.825"/></g><use xlink:href="#B" x="0.722" y="242.88" class="B C"/><g class="D B"><use xlink:href="#C" x="0.723" y="242.88"/><use xlink:href="#D" x="0.723" y="242.88"/></g><use xlink:href="#B" x="172.04" y="241.434" class="B C"/><g class="D B"><use xlink:href="#C" x="172.04" y="241.434"/><use xlink:href="#D" x="172.04" y="241.433"/></g><use xlink:href="#B" x="1.445" y="360.706" class="B C"/><g class="D B"><use xlink:href="#C" x="1.447" y="360.705"/><use xlink:href="#D" x="1.446" y="360.705"/></g><use xlink:href="#B" x="172.762" y="359.259" class="B C"/><g class="D B"><use xlink:href="#C" x="172.763" y="359.258"/><use xlink:href="#D" x="172.763" y="359.259"/></g></g><defs ><path id="B" d="M175.77 208.234l.17 47.24 143.767.34.17-48.263s-36.155 34.96-46.558-.512-38.543-36.667-51.163-1.364-46.388 2.558-46.388 2.558z"/><path id="C" d="M221.663 255.582l.213-14.815-.213 14.815z"/><path id="D" d="M273.507 255.377l-.318-14.395"/></defs></svg>