<?xml version="1.0" encoding="UTF-8" standalone="no"?><svg viewBox="0 0 1542 148" xmlns="http://www.w3.org/2000/svg" style="fill-rule:evenodd;clip-rule:evenodd;stroke-linejoin:round;stroke-miterlimit:2"><path d="M534.87 58C464.8 31.96 404.02 5.01 363-.06h-24c-71 9-107 97-218 92-98-4-140-63-149-92h1609.21c2 42.1-15.32 87.05-80.32 105.05-81 23-169.89-59.05-298.89-87.05-128-27-232 74-400 91-89.24 8.5-182.43-19.69-263.54-49.63l.06-.01.15-.03.57-.1 2.05-.38 6.66-1.2 5.79-1.04 4.26-.76 2.97-.54 2.8-.51.6-.12.17-.04c.01 0 .04 0 .05-.02v-.02c.01-.06-.04-.11-.07-.15l-.02-.03a9.9 9.9 0 00-6.26-3.3 14.02 14.02 0 00-3.07-.09l-.53.08-1.07.16-3.37.55-8.52 1.39c-2.44.4-4.87.92-7.33 1.2-.16.01-.2-.24-.3-.36l-.15-.17a60.42 60.42 0 00-4.16-4.43l-1.94-1.88c-.45-.44-.9-.87-1.29-1.36a2.3 2.3 0 01-.26-.39.49.49 0 01-.07-.24c.02-.27.33-.36.55-.44l.15-.06.25-.09.36-.13c.1-.04.21-.08.3-.14.5-.27.9-.68 1.26-1.1.12-.13.23-.27.34-.42.07-.1.14-.18.2-.29.12-.2.19-.42.27-.63.1-.28.2-.57.24-.88a5.6 5.6 0 00-.77-3.16 7.62 7.62 0 00-2.65-2.72 9.88 9.88 0 00-3.25-1.39c-.47-.1-.95-.16-1.43-.19a6.75 6.75 0 00-3 .46 4.83 4.83 0 00-2.6 2.68c-.1.25-.2.5-.25.77-.04.2-.05.4-.06.59-.03.43 0 .85.08 1.27a6.31 6.31 0 001.81 3.36c.34.33.72.63 1.1.93.66.54 1.34 1.07 2.03 1.6 1.4 1.08 2.79 2.2 4 3.48a17.52 17.52 0 013.69 5.78c.16.36.12.9.47 1.09 1.62.87 3.44 1.27 5.15 1.92l.45.17zm-15.8-19.39c-.1.8.1 1.61.6 2.42a4.98 4.98 0 004.08 2.38c.53.01 1.24-.17 1.7-.44a3.02 3.02 0 001.42-1.88c.35-1.5-.49-3.05-2.14-4a5.56 5.56 0 00-2-.7 3.86 3.86 0 00-2.04.22c-.52.24-1.03.66-1.29 1.04-.14.22-.3.67-.34.96z" style="fill:#63b3ed;fill-rule:nonzero"/><path d="M534.26 57.76l-4.98-1.85-1.06.5c-1.63.77-2.48 1.1-3.6 1.4-2.41.64-4.58.77-8.65.5-1.3-.08-2.85-.14-3.37-.13a6.25 6.25 0 00-4.72 2.25c-.35.45-.42.58-.66 1.21-.26.7-.3.98-.28 1.74.05 1.76 1.08 3.36 2.98 4.65.6.4 1.08.64 1.9.95.9.34 1.47.47 2.53.6 2.13.26 4.38-.42 5.62-1.7.45-.47.57-.67.83-1.34.22-.6.23-.63.25-1.08.05-.84-.03-1.6-.21-2.1-.04-.1-.22-.44-.4-.76-.35-.6-.4-.75-.27-.93.18-.27 1.12-.4 3.9-.51 2.91-.13 5.2-.34 7.59-.7l.45-.08 4.77 5.69 6.63 7.92c1.03 1.23 2 2.37 2.15 2.52a13.58 13.58 0 003.38 2.51c.5.27 1.68.71 2.19.84 1.09.27 2.2.35 3.36.24.4-.04.5-.06.52-.12.02-.07.7.77-10.58-13.15l-6.06-7.49c-.04-.06-4.21-1.58-4.21-1.58zm-23.99 4.44a3.66 3.66 0 012.04-1.41 5 5 0 014.64.87c.41.34.82.94 1 1.45.27.77.21 1.65-.15 2.33-.72 1.35-2.37 1.97-4.23 1.6a5.59 5.59 0 01-1.98-.78 3.86 3.86 0 01-1.4-1.5 3.43 3.43 0 01-.29-1.62c.04-.26.21-.7.37-.94z" style="fill:#63b3ed;fill-rule:nonzero"/></svg>