<svg width="505" height="478" viewBox="0 0 505 478" fill="none" xmlns="http://www.w3.org/2000/svg">
<path fill-rule="evenodd" clip-rule="evenodd" d="M275.871 1.02949C327.114 4.85184 380.139 17.9171 416.557 54.1946C450.635 88.1401 447.952 141.428 462.768 187.204C477.566 232.921 513.384 274.931 503.208 321.895C492.736 370.223 450.436 404.321 409.669 432.267C369.836 459.573 324.114 475.799 275.871 477.737C226.044 479.738 175.851 470.528 134.035 443.338C90.7046 415.164 61.8114 371.592 40.3082 324.57C16.3266 272.129 -10.6761 215.363 4.31604 159.677C19.5695 103.02 68.4377 61.5875 119.075 32.0046C166.237 4.45167 221.412 -3.03279 275.871 1.02949Z" fill="#63B3ED"/>
</svg>
