<?xml version="1.0" encoding="UTF-8" standalone="no"?>
<!DOCTYPE svg PUBLIC "-//W3C//DTD SVG 1.1//EN" "http://www.w3.org/Graphics/SVG/1.1/DTD/svg11.dtd">
<svg width="100%" height="100%" viewBox="0 0 800 800" version="1.1" xmlns="http://www.w3.org/2000/svg" xmlns:xlink="http://www.w3.org/1999/xlink" xml:space="preserve" xmlns:serif="http://www.serif.com/" style="fill-rule:evenodd;clip-rule:evenodd;stroke-linecap:round;stroke-linejoin:round;stroke-miterlimit:1.5;">
    <g transform="matrix(1.62904,0,0,1.62904,-261.866,-60.9942)">
        <g transform="matrix(1,0,0,0.630923,-308.117,45.0301)">
            <path d="M670.545,341.091L529.455,472L529.989,602.24L670.689,471.835L670.545,341.091Z" style="fill:white;stroke:rgb(56,56,56);stroke-width:5.14px;"/>
        </g>
        <g transform="matrix(1.0225,0,0,0.607588,-172.82,55.7055)">
            <path d="M670.545,341.091L529.455,472L529.989,602.24L670.689,471.835L670.545,341.091Z" style="fill:white;stroke:rgb(56,56,56);stroke-width:5.11px;"/>
        </g>
        <g transform="matrix(2.22795,0,0,2.22795,-153.593,-285.769)">
            <path d="M186.405,221.994L186.576,269.234L330.343,269.575L330.514,221.312C330.514,221.312 294.359,256.273 283.956,220.8C273.553,185.327 245.413,184.133 232.793,219.436C220.173,254.738 186.405,221.994 186.405,221.994Z" style="fill:white;stroke:rgb(56,56,56);stroke-width:1.93px;"/>
        </g>
        <g transform="matrix(2.22795,0,0,2.22795,-147.798,-244.577)">
            <g transform="matrix(1,0,0,1,-10.6359,-13.7605)">
                <path d="M186.405,221.994L186.576,269.234L330.343,269.575L330.514,221.312C330.514,221.312 294.359,256.273 283.956,220.8C273.553,185.327 245.413,184.133 232.793,219.436C220.173,254.738 186.405,221.994 186.405,221.994Z" style="fill:white;stroke:rgb(56,56,56);stroke-width:1.93px;"/>
            </g>
            <g transform="matrix(1.12191,0,0,1.12191,-35.346,-31.961)">
                <path d="M221.663,255.582L221.882,240.53L221.663,255.582Z" style="fill:white;stroke:rgb(56,56,56);stroke-width:1.72px;"/>
            </g>
            <g transform="matrix(1.12191,0,0,1.12191,31.3419,-31.157)">
                <path d="M221.663,255.582L221.882,240.53L221.663,255.582Z" style="fill:white;stroke:rgb(56,56,56);stroke-width:1.72px;"/>
            </g>
            <g transform="matrix(1,0,0,0.997615,0,0.566264)">
                <g transform="matrix(0.850505,0,0,0.453022,-79.7116,113.544)">
                    <path d="M305.13,315.821L343.61,278.555L343.533,316.799L305.13,315.821Z" style="fill:white;"/>
                </g>
                <g transform="matrix(0.911252,0.0173698,-0.00938507,0.492356,-97.1239,94.9258)">
                    <path d="M343.61,278.555L305.337,317.212" style="fill:none;stroke:rgb(56,56,56);stroke-width:2.63px;"/>
                </g>
            </g>
            <g transform="matrix(1,0,0,1,66.6742,0.42538)">
                <g transform="matrix(0.854443,0,0,0.438333,-81.1014,117.737)">
                    <path d="M304.739,316.307L343.948,277.677L343.598,317.132L304.739,316.307Z" style="fill:white;"/>
                </g>
                <g transform="matrix(0.928208,0.0176931,-0.00921733,0.483556,-102.997,97.266)">
                    <path d="M343.61,278.555L305.395,317.406" style="fill:none;stroke:rgb(56,56,56);stroke-width:2.61px;"/>
                </g>
            </g>
        </g>
        <g>
            <g>
                <g transform="matrix(2.49957,0,0,2.49957,-96.3,-305.127)">
                    <path d="M221.663,255.582L221.882,240.53L221.663,255.582Z" style="fill:white;stroke:rgb(56,56,56);stroke-width:1.72px;"/>
                </g>
                <g transform="matrix(2.49957,0,0,2.49957,-113.037,-295.754)">
                    <path d="M221.663,255.582L221.882,240.53L221.663,255.582Z" style="fill:white;stroke:rgb(56,56,56);stroke-width:1.72px;"/>
                </g>
            </g>
            <g transform="matrix(1,0,0,1,-33.3458,17.8429)">
                <g transform="matrix(2.49957,0,0,2.49957,-96.3,-305.127)">
                    <path d="M221.663,255.582L221.882,240.53L221.663,255.582Z" style="fill:white;stroke:rgb(56,56,56);stroke-width:1.72px;"/>
                </g>
                <g transform="matrix(2.49957,0,0,2.49957,-113.037,-295.754)">
                    <path d="M221.663,255.582L221.882,240.53L221.663,255.582Z" style="fill:white;stroke:rgb(56,56,56);stroke-width:1.72px;"/>
                </g>
            </g>
            <g transform="matrix(2.49957,0,0,2.49957,-163.924,-269.688)">
                <path d="M221.663,255.582L221.882,240.53L221.663,255.582Z" style="fill:white;stroke:rgb(56,56,56);stroke-width:1.72px;"/>
            </g>
        </g>
        <g transform="matrix(1,0,0,1,-146.843,-0.44633)">
            <g>
                <g transform="matrix(2.49957,0,0,2.49957,-96.3,-305.127)">
                    <path d="M221.663,255.582L221.882,240.53L221.663,255.582Z" style="fill:white;stroke:rgb(56,56,56);stroke-width:1.72px;"/>
                </g>
                <g transform="matrix(2.49957,0,0,2.49957,-113.037,-295.754)">
                    <path d="M221.663,255.582L221.882,240.53L221.663,255.582Z" style="fill:white;stroke:rgb(56,56,56);stroke-width:1.72px;"/>
                </g>
            </g>
            <g transform="matrix(1,0,0,1,-33.3458,17.8429)">
                <g transform="matrix(2.49957,0,0,2.49957,-96.3,-305.127)">
                    <path d="M221.663,255.582L221.882,240.53L221.663,255.582Z" style="fill:white;stroke:rgb(56,56,56);stroke-width:1.72px;"/>
                </g>
                <g transform="matrix(2.49957,0,0,2.49957,-113.037,-295.754)">
                    <path d="M221.663,255.582L221.882,240.53L221.663,255.582Z" style="fill:white;stroke:rgb(56,56,56);stroke-width:1.72px;"/>
                </g>
            </g>
            <g transform="matrix(2.49957,0,0,2.49957,-163.924,-269.688)">
                <path d="M221.663,255.582L221.882,240.53L221.663,255.582Z" style="fill:white;stroke:rgb(56,56,56);stroke-width:1.72px;"/>
            </g>
        </g>
    </g>
</svg>
