<svg xmlns="http://www.w3.org/2000/svg" xmlns:xlink="http://www.w3.org/1999/xlink" width="100%" height="100%" viewBox="0 0 465 200" fill-rule="evenodd" stroke-linecap="round" stroke-linejoin="round" stroke-miterlimit="1.5" xmlns:v="https://vecta.io/nano"><g transform="matrix(.384084 0 0 .384084 -52.3214 -53.048)" stroke="#383838" stroke-width="5"><path d="M149.936 147.395h380.178v502.16H149.936z" fill="#fff"/><g fill="none"><use xlink:href="#B"/><use xlink:href="#C"/><path d="M273.507 255.377l-.318-14.395"/><use xlink:href="#B" x="171.316" y="-1.446"/><use xlink:href="#C" x="171.317" y="-1.446"/><path d="M444.824 253.93l-.318-14.395"/><use xlink:href="#B" y="119.271"/><use xlink:href="#C" y="119.271"/><path d="M273.507 374.648l-.318-14.395"/><use xlink:href="#D"/><use xlink:href="#C" x="171.317" y="117.825"/><path d="M444.824 373.202l-.318-14.395"/><use xlink:href="#B" x="0.722" y="242.88"/><use xlink:href="#C" x="0.723" y="242.88"/><path d="M274.23 498.257l-.318-14.395"/><use xlink:href="#B" x="172.03" y="241.434"/><use xlink:href="#C" x="172.04" y="241.434"/><path d="M445.547 496.8l-.318-14.395"/><use xlink:href="#D" x="-169.871" y="242.88"/><use xlink:href="#C" x="1.437" y="360.705"/><path d="M274.953 616.082l-.318-14.395"/><use xlink:href="#B" x="172.762" y="359.259"/><use xlink:href="#C" x="172.763" y="359.258"/><path d="M446.27 614.636l-.318-14.395"/></g></g><g transform="matrix(.384084 0 0 .384084 101.902 -53.048)" stroke="#383838" stroke-width="5"><path d="M149.936 147.395h380.178v502.16H149.936z" fill="#fff"/><g fill="none"><use xlink:href="#B"/><use xlink:href="#C"/><path d="M273.507 255.377l-.318-14.395"/><use xlink:href="#B" x="171.316" y="-1.446"/><use xlink:href="#C" x="171.317" y="-1.446"/><path d="M444.824 253.93l-.318-14.395"/><use xlink:href="#B" y="119.271"/><use xlink:href="#C" y="119.271"/><path d="M273.507 374.648l-.318-14.395"/><use xlink:href="#D"/><use xlink:href="#C" x="171.317" y="117.825"/><path d="M444.824 373.202l-.318-14.395"/><use xlink:href="#B" x="0.722" y="242.88"/><use xlink:href="#C" x="0.723" y="242.88"/><path d="M274.23 498.257l-.318-14.395"/><use xlink:href="#B" x="172.03" y="241.434"/><use xlink:href="#C" x="172.04" y="241.434"/><path d="M445.547 496.8l-.318-14.395"/><use xlink:href="#D" x="-169.871" y="242.88"/><use xlink:href="#C" x="1.437" y="360.705"/><path d="M274.953 616.082l-.318-14.395"/><use xlink:href="#B" x="172.762" y="359.259"/><use xlink:href="#C" x="172.763" y="359.258"/><path d="M446.27 614.636l-.318-14.395"/></g></g><g transform="matrix(.384084 0 0 .384084 255.509 -53.048)"><g stroke="#383838" stroke-width="5"><path d="M149.936 147.395h380.178v502.16H149.936z" fill="#fff"/><g fill="none"><use xlink:href="#B"/><use xlink:href="#C"/><path d="M273.507 255.377l-.318-14.395"/><use xlink:href="#B" x="171.316" y="-1.446"/><use xlink:href="#C" x="171.317" y="-1.446"/><path d="M444.824 253.93l-.318-14.395"/><use xlink:href="#B" y="119.271"/><use xlink:href="#C" y="119.271"/><path d="M273.507 374.648l-.318-14.395"/><use xlink:href="#D"/><use xlink:href="#C" x="171.317" y="117.825"/><path d="M444.824 373.202l-.318-14.395"/></g></g><g transform="matrix(.731714 0 0 1 118.916 0)" fill="none" stroke="#383838"><path d="M175.766 398.475h72.054v161.342h-72.054z" stroke-width="5.65"/><path d="M245.504 425.504H212.32m33.184 20.112H212.32m33.184 19.33H212.32m33.184 19.917H212.32m33.184 19.04H212.32m33.184 18.452H212.32m33.184 19.133H212.32" stroke-width="5.924"/></g><g transform="matrix(.731714 0 0 1 47.1561 0)" fill="none" stroke="#383838"><path d="M175.766 398.475h72.054v161.342h-72.054z" stroke-width="5.65"/><path d="M246.333 425.443H213.15m33.183 20.112H213.15m33.183 19.33H213.15m33.183 19.917H213.15m33.183 19.04H213.15m33.183 18.452H213.15m33.183 19.133H213.15" stroke-width="5.924"/></g></g><defs ><path id="B" d="M175.77 208.234l.17 47.24 143.767.34.17-48.263s-36.155 34.96-46.558-.512-38.543-36.667-51.163-1.364-46.388 2.558-46.388 2.558l.002.001z"/><path id="C" d="M221.663 255.582l.213-14.815-.213 14.815z"/><path id="D" d="M347.086 326.06l.17 47.24 143.767.34.17-48.263s-36.155 34.96-46.558-.512-38.543-36.667-51.163-1.364-46.388 2.558-46.388 2.558h.002z"/></defs></svg>